<!-- icon666.com - MILLIONS vector ICONS FREE --><svg xmlns="http://www.w3.org/2000/svg" viewBox="0 0 64 64"><g id="Layer_32" data-name="Layer 32"><path d="M47.748,48.51a46.872,46.872,0,0,1-35.491,0A2,2,0,0,1,11,46.646V24H49V46.65A2,2,0,0,1,47.748,48.51Z" style="fill:#f8c460"></path><path d="M30,40l19-8.517V24H10.815V46.646a2,2,0,0,0,1.257,1.866,46.872,46.872,0,0,0,35.491,0,2,2,0,0,0,1.252-1.86v-.414A46.4,46.4,0,0,1,19.5,47.2a8.037,8.037,0,0,1-5.81-7.7V35.775A2,2,0,0,1,16.5,33.95Z" style="fill:#faaf42"></path><polygon points="30 12 1 25 30 38 59 25 30 12" style="fill:#f8c460"></polygon><path d="M35,17.433a1.008,1.008,0,0,1-.409-.088l-2-.9a1,1,0,1,1,.818-1.824l2,.9A1,1,0,0,1,35,17.433Z" style="fill:#fff"></path><path d="M27.091,32.8,5.346,23.052,1,25,30,38,59,25l-2.346-1.052L36.909,32.8A12.008,12.008,0,0,1,27.091,32.8Z" style="fill:#faaf42"></path><ellipse cx="30" cy="25" rx="3" ry="2" style="fill:#ff938d"></ellipse><path d="M63,47H55l1.608-8.039A2.439,2.439,0,0,1,59,37h0a2.439,2.439,0,0,1,2.392,1.961Z" style="fill:#ff938d"></path><path d="M58.478,41.608l.838-4.19L59,37a2.441,2.441,0,0,0-2.393,1.961L55,47h8l-.6-3H60.44A2,2,0,0,1,58.478,41.608Z" style="fill:#f27875"></path><path d="M62.373,38.765A3.44,3.44,0,0,0,60,36.164V25a1,1,0,0,0-.591-.912l-16-7.173a1,1,0,1,0-.818,1.824L54.325,24H33.763A4.024,4.024,0,0,0,30,22c-2.243,0-4,1.317-4,3s1.757,3,4,3a4.024,4.024,0,0,0,3.763-2H54.325L30,36.9,3.445,25,30,13.1l8.591,3.85a1,1,0,1,0,.818-1.824l-9-4.034a1,1,0,0,0-.818,0l-29,13a1,1,0,0,0,0,1.824L10,30.13V46.646a3.018,3.018,0,0,0,1.891,2.8A49.169,49.169,0,0,0,30,52.986,49.227,49.227,0,0,0,48.114,49.44,3.013,3.013,0,0,0,50,46.65V30.13l8-3.587v9.621a3.44,3.44,0,0,0-2.373,2.6L54.02,46.8A1,1,0,0,0,55,48h8a1,1,0,0,0,.98-1.2ZM30,26c-1.221,0-2-.592-2-1s.779-1,2-1,2,.592,2,1S31.221,26,30,26ZM48,46.65a1,1,0,0,1-.618.929,46.1,46.1,0,0,1-34.759,0A1,1,0,0,1,12,46.646V31.027l17.591,7.885a.994.994,0,0,0,.818,0L48,31.026ZM56.22,46l1.368-6.843a1.44,1.44,0,0,1,2.824,0L61.78,46Z"></path></g></svg>